<?xml version="1.0" encoding="utf-8"?>
<!-- Generator: Adobe Illustrator 24.1.2, SVG Export Plug-In . SVG Version: 6.00 Build 0)  -->
<svg version="1.1" id="Capa_1" xmlns="http://www.w3.org/2000/svg" xmlns:xlink="http://www.w3.org/1999/xlink" x="0px" y="0px"
	 viewBox="0 0 877 163" style="enable-background:new 0 0 877 163;" xml:space="preserve">
<style type="text/css">
	.st0{fill:#FB265E;}
</style>
<g>
	<path class="st0" d="M24.2,128.1c-0.4,0-0.6-0.2-0.6-0.7l0.3-96.2c0-0.4,0.2-0.6,0.6-0.6h28.3c5,0,9.7,1.2,13.9,3.7
		c4.2,2.5,7.6,5.8,10.1,9.9c2.5,4.2,3.8,8.8,3.8,14.1c0,3.5-0.5,6.6-1.5,9.3c-1,2.8-2.2,5.1-3.6,7c-1.4,1.9-2.7,3.3-3.8,4.3
		c5,5.6,7.6,12.2,7.6,19.7l0.1,28.7c0,0.5-0.2,0.7-0.7,0.7H62.8c-0.4,0-0.6-0.1-0.6-0.4v-29c0-3.4-1.2-6.3-3.6-8.8
		c-2.4-2.5-5.3-3.7-8.8-3.7h-9.2l-0.1,41.2c0,0.5-0.2,0.7-0.6,0.7H24.2z M40.7,69.4h12c2.9,0,5.5-1.1,7.7-3.2
		c2.2-2.1,3.4-4.8,3.4-7.8c0-3-1.1-5.6-3.3-7.7c-2.2-2.1-4.8-3.2-7.8-3.2h-12V69.4z"/>
	<path class="st0" d="M91.6,128.1c-0.4,0-0.6-0.2-0.6-0.7l0.1-96.2c0-0.4,0.2-0.6,0.6-0.6h44.9c0.4,0,0.6,0.2,0.6,0.7V47
		c0,0.4-0.2,0.6-0.6,0.6H108v21.8h28.7c0.4,0,0.6,0.2,0.6,0.6l0.1,15.8c0,0.4-0.2,0.6-0.6,0.6H108v24.5h28.8c0.4,0,0.6,0.2,0.6,0.7
		v16c0,0.4-0.2,0.6-0.6,0.6H91.6z"/>
	<path class="st0" d="M143.7,127.4l17.4-96.2c0.1-0.4,0.3-0.6,0.7-0.6h20.3c0.4,0,0.6,0.2,0.7,0.6l16.7,96.2
		c0.1,0.5-0.1,0.7-0.6,0.7h-15.5c-0.4,0-0.6-0.2-0.7-0.7l-1.5-10.2h-19l-1.5,10.2c-0.1,0.5-0.3,0.7-0.7,0.7h-15.5
		C143.9,128.1,143.7,127.9,143.7,127.4z M164.9,102.2h13.4l-5.7-39.3l-0.8-5.2l-0.6,5.2L164.9,102.2z"/>
	<path class="st0" d="M231.2,129.5c-5.1,0-9.8-1.3-13.9-3.8c-4.2-2.6-7.4-6-9.9-10.3c-2.4-4.3-3.6-9.1-3.6-14.4l0.1-43.7
		c0-5.1,1.2-9.8,3.6-14.1c2.4-4.2,5.6-7.7,9.8-10.2c4.2-2.6,8.8-3.9,13.9-3.9c5.1,0,9.8,1.3,13.9,3.8c4.1,2.5,7.4,5.9,9.8,10.2
		c2.4,4.2,3.6,9,3.6,14.2v6.4c0,0.4-0.2,0.6-0.6,0.6h-15.7c-0.4,0-0.6-0.2-0.6-0.6v-6.4c0-3.1-1-5.7-3-8c-2-2.2-4.5-3.4-7.5-3.4
		c-3.4,0-5.9,1.1-7.7,3.4c-1.8,2.3-2.7,4.9-2.7,7.9v43.7c0,3.5,1,6.3,3,8.4c2,2.1,4.5,3.2,7.4,3.2c3,0,5.5-1.2,7.5-3.6
		c2-2.4,3-5.1,3-8v-6.4c0-0.4,0.2-0.6,0.6-0.6h15.8c0.4,0,0.6,0.2,0.6,0.6v6.4c0,5.3-1.2,10.1-3.7,14.4c-2.5,4.3-5.8,7.7-9.9,10.3
		C241,128.2,236.4,129.5,231.2,129.5z"/>
	<path class="st0" d="M281.1,128.1c-0.4,0-0.6-0.2-0.6-0.7V47.6h-18.2c-0.5,0-0.7-0.2-0.7-0.7l0.1-15.7c0-0.4,0.2-0.6,0.6-0.6h53.2
		c0.5,0,0.7,0.2,0.7,0.6v15.7c0,0.5-0.2,0.7-0.6,0.7h-18.3l0.1,79.8c0,0.5-0.2,0.7-0.6,0.7H281.1z"/>
	<path class="st0" d="M345,128.1c-0.7,0-1.1-0.3-1.1-1l-0.1-95.3c0-0.7,0.4-1.1,1.1-1.1h12.6l23.7,55.2l-0.7-54
		c0-0.7,0.4-1.1,1.3-1.1h13.9c0.6,0,0.8,0.4,0.8,1.1l0.1,95.5c0,0.6-0.2,0.8-0.7,0.8h-12.3l-24.2-51.5l1,50.4c0,0.7-0.4,1.1-1.3,1.1
		H345z"/>
	<path class="st0" d="M434.6,129.5c-5,0-9.6-1.3-13.8-3.8c-4.2-2.6-7.5-6-10-10.2c-2.5-4.2-3.8-8.9-3.8-14.1l0.1-44.4
		c0-5.1,1.2-9.8,3.7-14c2.5-4.2,5.8-7.6,10-10.1c4.2-2.5,8.8-3.8,13.7-3.8c5,0,9.6,1.3,13.7,3.8c4.1,2.5,7.4,5.9,9.9,10.1
		c2.5,4.2,3.7,8.9,3.7,14l0.1,44.4c0,5.1-1.2,9.8-3.7,14.1c-2.5,4.2-5.8,7.7-9.9,10.2C444.3,128.2,439.7,129.5,434.6,129.5z
		 M434.6,112.5c2.8,0,5.2-1.1,7.4-3.4c2.1-2.3,3.1-4.9,3.1-7.8L445,57c0-3.1-1-5.7-2.9-7.8c-2-2.1-4.4-3.2-7.4-3.2
		c-2.9,0-5.4,1.1-7.4,3.2c-2.1,2.1-3.1,4.7-3.1,7.9v44.4c0,3.1,1,5.7,3.1,7.9C429.3,111.4,431.7,112.5,434.6,112.5z"/>
	<path class="st0" d="M473.4,128.1c-0.5,0-0.7-0.2-0.7-0.7l0.3-96.2c0-0.4,0.2-0.6,0.6-0.6l26.2-0.1c5.1-0.1,9.8,1.1,14.1,3.6
		c4.2,2.5,7.6,5.9,10.2,10.1c2.5,4.2,3.8,8.9,3.8,14.1v40.2c0,5.4-1.3,10.3-3.9,14.8c-2.6,4.4-6.1,8-10.5,10.6
		c-4.4,2.6-9.3,4-14.8,4.1L473.4,128.1z M489.8,110.9h8.7c3.5,0,6.4-1.2,8.8-3.6c2.4-2.4,3.6-5.3,3.6-8.7V58.2c0-3-1.1-5.6-3.3-7.8
		c-2.2-2.2-4.8-3.2-7.8-3.1l-9.8,0.1L489.8,110.9z"/>
	<path class="st0" d="M539.4,128.1c-0.4,0-0.6-0.2-0.6-0.7l0.1-96.2c0-0.4,0.2-0.6,0.6-0.6h44.9c0.4,0,0.6,0.2,0.6,0.7V47
		c0,0.4-0.2,0.6-0.6,0.6h-28.7v21.8h28.7c0.4,0,0.6,0.2,0.6,0.6l0.1,15.8c0,0.4-0.2,0.6-0.6,0.6h-28.8v24.5h28.8
		c0.4,0,0.6,0.2,0.6,0.7v16c0,0.4-0.2,0.6-0.6,0.6H539.4z"/>
	<path d="M642.1,129.5c-5,0-9.6-1.3-13.8-3.8c-4.2-2.6-7.5-6-9.9-10.2c-2.5-4.2-3.7-8.9-3.7-14.1v-6.4c0-0.5,0.2-0.7,0.7-0.7h15.7
		c0.4,0,0.6,0.2,0.6,0.7v6.4c0,3.1,1,5.7,3.1,7.9c2.1,2.2,4.5,3.3,7.4,3.3c2.9,0,5.4-1.1,7.4-3.4c2.1-2.2,3.1-4.9,3.1-7.8
		c0-3.5-2.2-6.4-6.7-9c-1.5-0.8-3.8-2.1-7-3.9c-3.2-1.8-6.2-3.5-9-5c-5.1-3-8.9-6.7-11.4-11.3c-2.5-4.5-3.7-9.6-3.7-15.3
		c0-5.2,1.3-9.9,3.8-14.1c2.5-4.2,5.9-7.4,10-9.9c4.2-2.4,8.7-3.6,13.5-3.6c4.9,0,9.5,1.2,13.6,3.7c4.2,2.5,7.5,5.8,9.9,9.9
		c2.5,4.2,3.7,8.8,3.7,13.9v11.5c0,0.4-0.2,0.6-0.6,0.6h-15.7c-0.4,0-0.6-0.2-0.6-0.6l-0.1-11.5c0-3.3-1-5.9-3.1-8
		c-2.1-2.1-4.5-3.1-7.3-3.1c-2.9,0-5.4,1.1-7.4,3.3c-2.1,2.2-3.1,4.8-3.1,7.8c0,3.1,0.7,5.6,2,7.7c1.3,2.1,3.7,4,7.1,5.9
		c0.5,0.3,1.4,0.8,2.7,1.5c1.4,0.7,2.8,1.5,4.4,2.4c1.6,0.9,3,1.7,4.3,2.3c1.3,0.7,2,1.1,2.3,1.3c4.7,2.6,8.4,5.8,11.1,9.6
		s4.1,8.4,4.1,13.9c0,5.3-1.2,10.1-3.7,14.4c-2.5,4.2-5.8,7.6-9.9,10.1C651.7,128.2,647.2,129.5,642.1,129.5z"/>
	<path d="M679.9,128.1c-0.4,0-0.6-0.2-0.6-0.7l0.1-96.2c0-0.4,0.2-0.6,0.6-0.6H725c0.4,0,0.6,0.2,0.6,0.7V47c0,0.4-0.2,0.6-0.6,0.6
		h-28.7v21.8H725c0.4,0,0.6,0.2,0.6,0.6l0.1,15.8c0,0.4-0.2,0.6-0.6,0.6h-28.8v24.5h28.8c0.4,0,0.6,0.2,0.6,0.7v16
		c0,0.4-0.2,0.6-0.6,0.6H679.9z"/>
	<path d="M739.4,128.1c-0.7,0-1.1-0.3-1.1-1l-0.1-95.3c0-0.7,0.4-1.1,1.1-1.1h12.6l23.7,55.2l-0.7-54c0-0.7,0.4-1.1,1.3-1.1H790
		c0.6,0,0.8,0.4,0.8,1.1l0.1,95.5c0,0.6-0.2,0.8-0.7,0.8h-12.3l-24.2-51.5l1,50.4c0,0.7-0.4,1.1-1.3,1.1H739.4z"/>
	<path d="M803.8,128.1c-0.5,0-0.7-0.2-0.7-0.7l0.3-96.2c0-0.4,0.2-0.6,0.6-0.6l26.2-0.1c5.1-0.1,9.8,1.1,14.1,3.6
		c4.2,2.5,7.6,5.9,10.1,10.1c2.5,4.2,3.8,8.9,3.8,14.1v40.2c0,5.4-1.3,10.3-3.9,14.8c-2.6,4.4-6.1,8-10.5,10.6
		c-4.4,2.6-9.3,4-14.8,4.1L803.8,128.1z M820.2,110.9h8.7c3.5,0,6.4-1.2,8.8-3.6c2.4-2.4,3.6-5.3,3.6-8.7V58.2c0-3-1.1-5.6-3.3-7.8
		c-2.2-2.2-4.8-3.2-7.8-3.1l-9.8,0.1L820.2,110.9z"/>
</g>
</svg>
